<svg xmlns="http://www.w3.org/2000/svg" version="1.1" xmlns:xlink="http://www.w3.org/1999/xlink" xmlns:svgjs="http://svgjs.dev/svgjs" width="1000" height="1000" viewBox="0 0 1000 1000"><rect width="1000" height="1000" fill="#ffffff"></rect><g transform="matrix(0.7,0,0,0.7,150.00008034241097,106.25)"><svg viewBox="0 0 320 360" data-background-color="#ffffff" preserveAspectRatio="xMidYMid meet" height="1125" width="1000" xmlns="http://www.w3.org/2000/svg" xmlns:xlink="http://www.w3.org/1999/xlink"><g id="tight-bounds" transform="matrix(1,0,0,1,-0.00003672795929787753,0)"><svg viewBox="0 0 320 360" height="360" width="320"><g><svg></svg></g><g><svg viewBox="0 0 320 360" height="360" width="320"><g><path transform="translate(-32.1528,-12.1528) scale(3.84303,3.84303)" d="M88.492 50l1.711-2.963c2.946-5.102 1.198-11.626-3.904-14.572l-2.963-1.711v-3.422c0-5.891-4.776-10.667-10.667-10.667h-3.422l-1.711-2.963c-2.946-5.102-9.47-6.85-14.572-3.904l-2.964 1.71-2.963-1.711c-5.102-2.945-11.626-1.197-14.572 3.905l-1.711 2.963h-3.422c-5.891 0-10.667 4.776-10.667 10.667v3.422l-2.963 1.711c-5.102 2.946-6.85 9.47-3.904 14.572l1.71 2.963-1.711 2.963c-2.945 5.102-1.197 11.626 3.905 14.572l2.963 1.711v3.422c0 5.891 4.776 10.667 10.667 10.667h3.422l1.711 2.963c2.946 5.102 9.47 6.85 14.572 3.904l2.963-1.71 2.963 1.711c5.102 2.946 11.626 1.198 14.572-3.904l1.711-2.963h3.422c5.891 0 10.667-4.776 10.667-10.667v-3.422l2.963-1.711c5.102-2.946 6.85-9.47 3.904-14.572zM85.832 33.273c2.252 1.3 3.862 3.399 4.535 5.91 0.673 2.511 0.328 5.135-0.972 7.386l-1.441 2.497-4.618-7.999v-9.236zM73.72 73.72l-15.038 8.682h-17.364l-15.038-8.682-8.682-15.038v-17.364l8.682-15.038 15.038-8.682h17.364l15.038 8.682 8.682 15.038v17.364zM82.401 60.549v8.158l-7.065 4.079zM72.786 75.336l-4.079 7.065h-8.158zM57.065 83.335l-7.065 4.079-7.065-4.079zM39.451 82.401h-8.158l-4.079-7.065zM24.664 72.786l-7.065-4.079v-8.158zM16.665 57.065l-4.079-7.065 4.079-7.065zM17.599 39.451v-8.158l7.065-4.079zM27.214 24.664l4.079-7.065h8.158zM42.935 16.665l7.065-4.079 7.065 4.079zM60.549 17.599h8.158l4.079 7.065zM75.336 27.214l7.065 4.079v8.158zM83.335 42.935l4.079 7.065-4.079 7.065zM72.668 17.599c2.6 0 5.044 1.012 6.883 2.851 1.838 1.838 2.851 4.283 2.851 6.883v2.883l-7.999-4.618-4.618-7.999zM53.43 10.606c2.252-1.3 4.875-1.645 7.386-0.972 2.511 0.673 4.61 2.284 5.91 4.535l1.441 2.497h-9.236l-7.999-4.618zM33.273 14.168c1.3-2.252 3.399-3.862 5.91-4.535 2.511-0.673 5.135-0.328 7.386 0.972l2.497 1.441-7.999 4.618h-9.236zM17.599 27.332c0-2.6 1.012-5.044 2.851-6.883 1.838-1.838 4.283-2.851 6.883-2.851h2.883l-4.618 7.999-7.999 4.618zM10.606 46.57c-1.3-2.252-1.645-4.875-0.972-7.386 0.673-2.511 2.284-4.61 4.535-5.91l2.497-1.441v9.236l-4.618 7.999zM14.168 66.727c-2.252-1.3-3.862-3.399-4.535-5.91-0.673-2.511-0.328-5.135 0.972-7.386l1.441-2.497 4.618 7.999v9.236zM27.332 82.401c-2.6 0-5.044-1.012-6.883-2.851-1.838-1.838-2.851-4.283-2.851-6.883v-2.883l7.999 4.618 4.618 7.999zM46.57 89.394c-2.252 1.3-4.875 1.645-7.386 0.972-2.511-0.673-4.61-2.284-5.91-4.535l-1.441-2.497h9.236l7.999 4.618zM66.727 85.832c-1.3 2.252-3.399 3.862-5.91 4.535-2.511 0.673-5.135 0.328-7.386-0.972l-2.497-1.441 7.999-4.618h9.236zM82.401 72.668c0 2.6-1.012 5.044-2.851 6.883-1.838 1.838-4.283 2.851-6.883 2.851h-2.883l4.618-7.999 7.999-4.618zM90.367 60.816c-0.673 2.511-2.284 4.61-4.535 5.91l-2.497 1.441v-9.236l4.618-7.999 1.441 2.497c1.3 2.253 1.646 4.876 0.973 7.387z" fill="#bb84e8" fill-rule="nonzero" stroke="none" stroke-width="1" stroke-linecap="butt" stroke-linejoin="miter" stroke-miterlimit="10" stroke-dasharray="" stroke-dashoffset="0" font-family="none" font-weight="none" font-size="none" text-anchor="none" style="mix-blend-mode: normal" data-fill-palette-color="tertiary"></path></g><g transform="matrix(1,0,0,1,64.00000000000001,137.16547937891485)"><svg viewBox="0 0 191.99999999999997 85.6690412421703" height="85.6690412421703" width="191.99999999999997"><g><svg viewBox="0 0 328.26935947834227 146.4714650817236" height="85.6690412421703" width="191.99999999999997"><g><rect width="9.557849406383358" height="127.18216939078752" x="217.02054818424963" y="9.644647845468043" fill="#8c00ff" opacity="1" stroke-width="0" stroke="transparent" fill-opacity="1" class="rect-r$-0" data-fill-palette-color="primary" rx="1%" id="r$-0" data-palette-color="#8c00ff"></rect></g><g transform="matrix(1,0,0,1,0,20.243161961367)"><svg viewBox="0 0 192 105.9851411589896" height="105.9851411589896" width="192"><g id="textblocktransform"><svg viewBox="0 0 192 105.9851411589896" height="105.9851411589896" width="192" id="textblock"><g><svg viewBox="0 0 192 105.9851411589896" height="105.9851411589896" width="192"><g transform="matrix(1,0,0,1,0,0)"><svg width="192" viewBox="0.2 -37.05 67.3 37.15" height="105.9851411589896" data-palette-color="#8c00ff"><path d="M8.3-2.05L0.2 0.05Q1.55-6.6 2.8-12.95L2.8-12.95Q3.25-15.65 3.8-18.57 4.35-21.5 4.83-24.38 5.3-27.25 5.73-29.93 6.15-32.6 6.4-34.8L6.4-34.8Q9.25-35.7 12.55-36.13 15.85-36.55 19.1-36.55L19.1-36.55Q21.05-36.55 22.33-36.1 23.6-35.65 24.33-34.83 25.05-34 25.35-32.9 25.65-31.8 25.65-30.45L25.65-30.45Q25.65-28.45 24.95-26.53 24.25-24.6 23.08-22.88 21.9-21.15 20.38-19.73 18.85-18.3 17.1-17.4L17.1-17.4Q18-15.4 19.03-13.03 20.05-10.65 20.95-8.5L20.95-8.5Q21.95-6 23-3.5L23-3.5 15.25-0.8Q14.25-4.25 13.45-7.3L13.45-7.3Q13.1-8.55 12.75-9.88 12.4-11.2 12.1-12.38 11.8-13.55 11.6-14.45 11.4-15.35 11.35-15.85L11.35-15.85 10.7-15.65Q10.4-14.05 9.98-11.75 9.55-9.45 9.2-7.3L9.2-7.3Q8.75-4.75 8.3-2.05L8.3-2.05ZM13.55-29.6L11.95-21.65Q12.9-21.75 14.28-22.45 15.65-23.15 16.9-24.13 18.15-25.1 19.05-26.15 19.95-27.2 19.95-28L19.95-28Q19.95-28.55 19.6-28.88 19.25-29.2 18.63-29.38 18-29.55 17.25-29.6 16.5-29.65 15.7-29.65L15.7-29.65Q15.15-29.65 14.58-29.63 14-29.6 13.55-29.6L13.55-29.6ZM30.35-1.5L22.65 0.1Q23.95-6.8 25.2-13.45L25.2-13.45Q25.65-16.25 26.2-19.28 26.75-22.3 27.25-25.25 27.75-28.2 28.2-30.98 28.65-33.75 29-36.05L29-36.05 37.1-36.6Q36.25-33.1 35.42-29.3 34.6-25.5 33.9-21.9L33.9-21.9 38.85-22.45Q39.55-26 40.1-29.33 40.65-32.65 41.55-36.2L41.55-36.2Q42.7-36.4 44.1-36.52 45.5-36.65 46.7-36.75 47.9-36.85 48.72-36.93 49.55-37 49.55-37L49.55-37Q48.85-34.75 48.22-32.08 47.6-29.4 47-26.53 46.4-23.65 45.85-20.7 45.3-17.75 44.85-15.1L44.85-15.1Q43.75-8.75 42.8-2.1L42.8-2.1 35-1.2Q35.65-4.2 36.15-7.05L36.15-7.05Q36.65-9.45 37.17-12.05 37.7-14.65 38-16.5L38-16.5 33.15-16.05Q32.8-14.15 32.32-11.65 31.85-9.15 31.45-6.9L31.45-6.9Q30.9-4.2 30.35-1.5L30.35-1.5ZM62.7-1Q61.45-0.8 59.95-0.55 58.45-0.3 57.25-0.1L57.25-0.1Q57.45-1.75 57.65-3.35L57.65-3.35Q57.8-4.75 57.92-6.15 58.05-7.55 58.15-8.55L58.15-8.55 53.8-8.55 51.8-1.35Q50.7-1.2 49.2-1.03 47.7-0.85 46.4-0.7L46.4-0.7Q44.8-0.5 43.25-0.3L43.25-0.3Q45.25-6.95 47.2-13.4L47.2-13.4Q48-16.1 48.87-19.05 49.75-22 50.62-24.93 51.5-27.85 52.3-30.55 53.09-33.25 53.7-35.5L53.7-35.5Q57.09-35.75 60.62-36.1 64.15-36.45 67.5-37.05L67.5-37.05Q67.34-35.45 67.17-33.08 67-30.7 66.84-27.9 66.7-25.1 66.55-22.05 66.4-19 66.25-16.05L66.25-16.05Q66-9.15 65.7-1.4L65.7-1.4Q64.2-1.15 62.7-1L62.7-1ZM58.09-26.1L55-13.55Q55.2-13.55 55.72-13.58 56.25-13.6 56.82-13.63 57.4-13.65 57.9-13.68 58.4-13.7 58.59-13.75L58.59-13.75Q58.59-14.05 58.67-14.78 58.75-15.5 58.82-16.43 58.9-17.35 59-18.45 59.09-19.55 59.2-20.6L59.2-20.6Q59.4-23.15 59.7-26.1L59.7-26.1 60-30.45 59.25-30.4 58.09-26.1Z" opacity="1" transform="matrix(1,0,0,1,0,0)" fill="#8c00ff" class="wordmark-text-0" data-fill-palette-color="primary" id="text-0"></path></svg></g></svg></g></svg></g></svg></g><g transform="matrix(1,0,0,1,251.59894577488262,0)"><svg viewBox="0 0 76.67041370345962 146.4714650817236" height="146.4714650817236" width="76.67041370345962"><g><svg xmlns="http://www.w3.org/2000/svg" xmlns:xlink="http://www.w3.org/1999/xlink" version="1.1" x="0" y="0" viewBox="19.682354658322133 3.5 35.57297155366782 67.95874717630606" enable-background="new 0 0 75 75" xml:space="preserve" height="146.4714650817236" width="76.67041370345962" class="icon-icon-0" data-fill-palette-color="accent" id="icon-0"><path d="M21.2 59.5c-1.1-2.6-4.2-12.2 3.8-24.7C36 18 31.7 3.5 31.7 3.5S46 8.8 41.7 37.5c-1 6.5-0.9 9 2 9.4 5 0.7 3.1-19.7 3.1-19.7s3.9 2 6.8 12.1c1.5 5.3 1.8 9.5 1.6 12.5-1 18.1-16.5 19.6-16.5 19.6S26.9 73 21.2 59.5z" fill="#6400ff" data-fill-palette-color="accent"></path></svg></g></svg></g></svg></g></svg></g></svg></g><defs></defs></svg><rect width="320" height="360" fill="none" stroke="none" visibility="hidden"></rect></g></svg></g></svg>